<svg xmlns="http://www.w3.org/2000/svg" width="256" height="256" viewBox="0 0 100 100"><rect width="100" height="100" rx="20" fill="#132f85"></rect><path fill="#fff" d="M53.47 29.62L41.95 35.02Q40.78 34.56 40.01 33.66Q39.25 32.77 39.25 31.41L39.25 31.41Q39.25 29.98 39.97 29.08Q40.69 28.17 42.48 27.45L42.48 27.45L55.09 21.96L56.80 21.96Q58.59 21.96 59.67 23.05Q60.76 24.13 60.76 25.92L60.76 25.92L60.76 77.41Q60.22 77.58 59.31 77.81Q58.42 78.03 57.34 78.03L57.34 78.03Q53.47 78.03 53.47 74.70L53.47 74.70L53.47 29.62Z"></path></svg>
