<svg xmlns="http://www.w3.org/2000/svg" width="256" height="256" viewBox="0 0 100 100"><rect width="100" height="100" rx="20" fill="#132f85"></rect><path fill="#fff" d="M33.53 28.85L33.53 28.85Q33.53 27.68 34.74 26.47Q35.96 25.25 38.03 24.26Q40.10 23.27 42.89 22.69Q45.68 22.10 48.83 22.10L48.83 22.10Q57.56 22.10 62.46 26.33Q67.37 30.56 67.37 37.76L67.37 37.76Q67.37 40.19 66.74 42.58Q66.11 44.96 64.67 47.44Q63.23 49.91 60.89 52.61Q58.55 55.31 55.22 58.37L55.22 58.37L40.55 71.96L67.28 71.96Q67.64 72.41 67.91 73.13Q68.18 73.85 68.18 74.84L68.18 74.84Q68.18 77.90 65.39 77.90L65.39 77.90L33.62 77.90Q31.82 76.64 31.82 74.30L31.82 74.30Q31.82 71.69 33.98 69.62L33.98 69.62L50.18 54.05Q52.88 51.44 54.77 49.28Q56.66 47.12 57.78 45.23Q58.91 43.34 59.41 41.54Q59.90 39.74 59.90 37.85L59.90 37.85Q59.90 33.53 57.02 30.88Q54.14 28.22 48.29 28.22L48.29 28.22Q44.24 28.22 41.18 29.57Q38.12 30.92 36.05 32.45L36.05 32.45Q35.06 32.00 34.30 31.10Q33.53 30.20 33.53 28.85Z"></path></svg>
