<svg xmlns="http://www.w3.org/2000/svg" width="256" height="256" viewBox="0 0 100 100"><rect width="100" height="100" rx="20" fill="#132f85"></rect><path fill="#fff" d="M47.98 21.56L47.98 21.56Q52.20 21.56 55.72 22.51Q59.23 23.45 61.75 25.34Q64.27 27.23 65.66 30.02Q67.06 32.81 67.06 36.50L67.06 36.50Q67.06 39.20 66.16 41.32Q65.25 43.43 63.95 44.96Q62.64 46.49 61.12 47.39Q59.59 48.29 58.42 48.56L58.42 48.56Q60.22 49.10 62.02 50.23Q63.81 51.35 65.30 53.02Q66.78 54.68 67.73 56.98Q68.67 59.27 68.67 62.15L68.67 62.15Q68.67 66.20 67.19 69.26Q65.70 72.32 63.01 74.34Q60.31 76.37 56.53 77.41Q52.75 78.44 48.25 78.44L48.25 78.44Q44.56 78.44 41.45 77.86Q38.35 77.27 36.10 76.23Q33.85 75.20 32.59 73.94Q31.33 72.68 31.33 71.33L31.33 71.33Q31.33 70.07 32 69.17Q32.68 68.27 33.76 67.64L33.76 67.64Q36.10 69.44 39.47 70.88Q42.84 72.32 48.25 72.32L48.25 72.32Q54.19 72.32 57.88 69.76Q61.56 67.19 61.56 61.97L61.56 61.97Q61.56 57.38 58.15 54.59Q54.73 51.80 48.25 51.80L48.25 51.80L40.78 51.80Q40.42 51.35 40.15 50.50Q39.88 49.64 39.88 48.74L39.88 48.74Q39.88 47.75 40.15 46.94Q40.42 46.13 40.78 45.68L40.78 45.68L47.62 45.68Q54.28 45.68 57.11 43.21Q59.95 40.73 59.95 36.68L59.95 36.68Q59.95 32.27 56.75 29.98Q53.56 27.68 47.89 27.68L47.89 27.68Q43.57 27.68 40.28 28.99Q37.00 30.29 34.84 31.82L34.84 31.82Q33.94 31.37 33.22 30.43Q32.50 29.48 32.50 28.22L32.50 28.22Q32.50 27.05 33.67 25.84Q34.84 24.62 36.95 23.68Q39.07 22.73 41.90 22.15Q44.73 21.56 47.98 21.56Z"></path></svg>
