<svg xmlns="http://www.w3.org/2000/svg" width="256" height="256" viewBox="0 0 100 100"><rect width="100" height="100" rx="20" fill="#132f85"></rect><path fill="#fff" d="M27.91 57.20L54.09 22.46Q54.91 22.28 55.94 22.14Q56.98 22.01 57.78 22.01L57.78 22.01Q59.67 22.01 61.20 22.91Q62.73 23.81 62.73 26.42L62.73 26.42L62.73 57.92L71.73 57.92Q72.00 58.37 72.28 59.13Q72.55 59.90 72.55 60.89L72.55 60.89Q72.55 63.95 69.75 63.95L69.75 63.95L62.73 63.95L62.73 77.45Q62.28 77.63 61.43 77.81Q60.58 77.99 59.59 77.99L59.59 77.99Q55.72 77.99 55.72 74.84L55.72 74.84L55.72 63.95L29.71 63.95Q28.81 63.50 28.13 62.38Q27.46 61.25 27.46 59.72L27.46 59.72Q27.46 58.91 27.59 58.32Q27.73 57.74 27.91 57.20L27.91 57.20ZM55.80 57.92L55.98 29.57L55.80 29.57L35.83 57.92L55.80 57.92Z"></path></svg>
