<svg xmlns="http://www.w3.org/2000/svg" width="256" height="256" viewBox="0 0 100 100"><rect width="100" height="100" rx="20" fill="#132f85"></rect><path fill="#fff" d="M66.02 22.05L66.02 22.05Q66.29 22.50 66.56 23.27Q66.83 24.03 66.83 24.93L66.83 24.93Q66.83 26.46 66.11 27.32Q65.39 28.17 64.04 28.17L64.04 28.17L41 28.17L39.56 44.37Q41.09 43.56 43.79 42.80Q46.49 42.03 49.64 42.03L49.64 42.03Q53.69 42.03 57.16 43.20Q60.62 44.37 63.23 46.58Q65.84 48.78 67.33 52.07Q68.81 55.35 68.81 59.67L68.81 59.67Q68.81 63.63 67.46 66.96Q66.11 70.29 63.50 72.72Q60.89 75.15 57.06 76.55Q53.24 77.94 48.38 77.94L48.38 77.94Q44.51 77.94 41.32 77.27Q38.12 76.59 35.87 75.51Q33.62 74.43 32.41 73.13Q31.19 71.82 31.19 70.56L31.19 70.56Q31.19 69.12 32.14 68.09Q33.08 67.05 34.07 66.60L34.07 66.60Q36.05 68.40 39.65 70.16Q43.25 71.91 48.38 71.91L48.38 71.91Q54.59 71.91 58.01 68.49Q61.43 65.07 61.43 59.67L61.43 59.67Q61.43 54.18 57.92 51.12Q54.41 48.06 48.74 48.06L48.74 48.06Q45.59 48.06 42.98 49.05Q40.37 50.04 38.12 51.30L38.12 51.30Q35.69 51.12 34.21 49.82Q32.72 48.51 32.72 46.44L32.72 46.44Q32.72 45.90 32.77 45.05Q32.81 44.19 32.90 43.38L32.90 43.38L34.43 26.19Q34.61 24.30 35.60 23.18Q36.59 22.05 38.48 22.05L38.48 22.05L66.02 22.05Z"></path></svg>
